<svg id="Layer_1" data-name="Layer 1" xmlns="http://www.w3.org/2000/svg" viewBox="0 0 47 47"><defs><style>.cls-1,.cls-3{fill:none;stroke-width:2px;}.cls-1{stroke:#ff5a5f;stroke-linejoin:round;}.cls-2{fill:#fff;}.cls-3{stroke:#fff;stroke-miterlimit:10;}</style></defs><title>logo3</title><path class="cls-1" d="M21.24,21.68"/><path class="cls-1" d="M4.08,36.74"/><path class="cls-1" d="M32.66,33.62"/><path class="cls-1" d="M20.57,20.81"/><path class="cls-1" d="M36.71,26.4"/><path class="cls-1" d="M32.38,33.69"/><path class="cls-1" d="M44.75,33.09"/><path class="cls-1" d="M36.14,25.92"/><path class="cls-1" d="M15.19,24.44"/><path class="cls-1" d="M3.5,31.81"/><path class="cls-1" d="M11.63,14.25"/><path class="cls-1" d="M15.19,24.44"/><path class="cls-1" d="M29.44,19.34"/><path class="cls-1" d="M13,14.25"/><path class="cls-1" d="M22.81,38.94"/><path class="cls-1" d="M27.94,19.81"/><path class="cls-1" d="M45.13,31.31"/><path class="cls-2" d="M23.5,2A21.5,21.5,0,1,1,2,23.5,21.52,21.52,0,0,1,23.5,2m0-2A23.5,23.5,0,1,0,47,23.5,23.5,23.5,0,0,0,23.5,0Z"/><line class="cls-3" x1="3.04" y1="32.58" x2="18.26" y2="20.44"/><line class="cls-3" x1="38.07" y1="40.81" x2="17.63" y2="20.44"/><line class="cls-3" x1="44.75" y1="30.02" x2="37.25" y2="23.29"/><line class="cls-3" x1="27.48" y1="30.25" x2="39.09" y2="23.4"/></svg>